<svg width="18" height="25" viewBox="0 0 18 25" fill="none" xmlns="http://www.w3.org/2000/svg">
<g clip-path="url(#clip0_297083_8311)">
<path d="M15 6.53424H3C2.175 6.53424 1.5075 7.20924 1.5075 8.03424L1.5 17.0342C1.5 17.8592 2.175 18.5342 3 18.5342H15C15.825 18.5342 16.5 17.8592 16.5 17.0342V8.03424C16.5 7.20924 15.825 6.53424 15 6.53424ZM14.7 9.72174L9.3975 13.0367C9.1575 13.1867 8.8425 13.1867 8.6025 13.0367L3.3 9.72174C3.1125 9.60174 3 9.39924 3 9.18174C3 8.67924 3.5475 8.37924 3.975 8.64174L9 11.7842L14.025 8.64174C14.4525 8.37924 15 8.67924 15 9.18174C15 9.39924 14.8875 9.60174 14.7 9.72174Z" fill="#2E2F42"/>
</g>
<defs>
<clipPath id="clip0_297083_8311">
<rect width="18" height="24" fill="white" transform="translate(0 0.534241)"/>
</clipPath>
</defs>
</svg>
