<svg width="18" height="19" viewBox="0 0 18 19" fill="none" xmlns="http://www.w3.org/2000/svg">
<g clip-path="url(#clip0_668345_96)">
<path d="M9 9.53424C10.6575 9.53424 12 8.19174 12 6.53424C12 4.87674 10.6575 3.53424 9 3.53424C7.3425 3.53424 6 4.87674 6 6.53424C6 8.19174 7.3425 9.53424 9 9.53424ZM9 11.0342C6.9975 11.0342 3 12.0392 3 14.0342V14.7842C3 15.1967 3.3375 15.5342 3.75 15.5342H14.25C14.6625 15.5342 15 15.1967 15 14.7842V14.0342C15 12.0392 11.0025 11.0342 9 11.0342Z" fill="#4D5AE5"/>
</g>
<defs>
<clipPath id="clip0_668345_96">
<rect width="18" height="18" fill="white" transform="translate(0 0.534241)"/>
</clipPath>
</defs>
</svg>
