<svg width="18" height="25" viewBox="0 0 18 25" fill="none" xmlns="http://www.w3.org/2000/svg">
<g clip-path="url(#clip0_297083_8305)">
<path d="M14.7263 14.3994L12.8881 14.1895C12.4467 14.1388 12.0125 14.2908 11.7013 14.602L10.3697 15.9336C8.3217 14.8915 6.64276 13.2198 5.60067 11.1645L6.93947 9.82568C7.25065 9.5145 7.40263 9.08029 7.35197 8.63884L7.1421 6.81516C7.05526 6.08424 6.44013 5.53424 5.70198 5.53424H4.45002C3.63226 5.53424 2.952 6.2145 3.00266 7.03226C3.38621 13.2125 8.32894 18.148 14.5019 18.5316C15.3197 18.5822 15.9999 17.902 15.9999 17.0842V15.8322C16.0072 15.1013 15.4572 14.4862 14.7263 14.3994Z" fill="#2E2F42"/>
</g>
<defs>
<clipPath id="clip0_297083_8305">
<rect width="18" height="24" fill="white" transform="translate(0 0.534241)"/>
</clipPath>
</defs>
</svg>
